# xmcd
#
# Track frame offsets:
#	150
#	17172
#	29667
#	45780
#	59347
#	73660
#
# Disc length: 1173 seconds
#
# Revision: 0
# Processed by: cddbd v1.5.2PL0 Copyright (c) Steve Scherf et al.
# Submitted via: audiograbber 1.83.01
#
DISCID=4a049306
DTITLE=Country Discovery - Stable of Thorughbreds 01
DYEAR=1900
DGENRE=
TTITLE0=Baby Like My Britches  - Shayne Weems
TTITLE1=Save The Drama For Your Mama  - Barb Marchuk
TTITLE2=Souped Up Purple Truck  - Shane Worley
TTITLE3=Photograph  - Jacob Lyda
TTITLE4=Don´t Think Twice  - Derrick Mehaffey
TTITLE5=Steel Rails - Mike Headrick
EXTD=
EXTT0=
EXTT1=
EXTT2=
EXTT3=
EXTT4=
EXTT5=
PLAYORDER=
